<?xml version="1.0" encoding="UTF-8"?><svg xmlns="http://www.w3.org/2000/svg" viewBox="0 0 512 512" width="512" height="512"><polygon points="56.81,141 256,26 256,256 56.81,371" fill="#22C55E"/><line x1="56.81" y1="217.66666666666666" x2="256" y2="102.66666666666666" stroke="#111" stroke-width="2.5"/><line x1="123.20666666666666" y1="102.66666666666667" x2="123.20666666666666" y2="332.6666666666667" stroke="#111" stroke-width="2.5"/><line x1="56.81" y1="294.3333333333333" x2="256" y2="179.33333333333331" stroke="#111" stroke-width="2.5"/><line x1="189.60333333333332" y1="64.33333333333334" x2="189.60333333333332" y2="294.33333333333337" stroke="#111" stroke-width="2.5"/><polygon points="56.81,141 256,256 455.19,141 256,26" fill="#EF4444"/><line x1="123.20666666666666" y1="102.66666666666667" x2="322.39666666666665" y2="217.66666666666669" stroke="#111" stroke-width="2.5"/><line x1="123.20666666666666" y1="179.33333333333331" x2="322.39666666666665" y2="64.33333333333333" stroke="#111" stroke-width="2.5"/><line x1="189.60333333333332" y1="64.33333333333334" x2="388.7933333333333" y2="179.33333333333334" stroke="#111" stroke-width="2.5"/><line x1="189.60333333333332" y1="217.66666666666666" x2="388.7933333333333" y2="102.66666666666666" stroke="#111" stroke-width="2.5"/><polygon points="256,26 455.19,141 455.19,371 256,256" fill="#3B82F6"/><line x1="256" y1="102.66666666666666" x2="455.19" y2="217.66666666666666" stroke="#111" stroke-width="2.5"/><line x1="322.39666666666665" y1="64.33333333333333" x2="322.39666666666665" y2="294.3333333333333" stroke="#111" stroke-width="2.5"/><line x1="256" y1="179.33333333333331" x2="455.19" y2="294.3333333333333" stroke="#111" stroke-width="2.5"/><line x1="388.7933333333333" y1="102.66666666666666" x2="388.7933333333333" y2="332.66666666666663" stroke="#111" stroke-width="2.5"/><polygon points="56.81,141 256,26 256,256 56.81,371" stroke="#111" stroke-width="4" stroke-linejoin="round" fill="none"/><polygon points="56.81,141 256,256 455.19,141 256,26" stroke="#111" stroke-width="4" stroke-linejoin="round" fill="none"/><polygon points="256,26 455.19,141 455.19,371 256,256" stroke="#111" stroke-width="4" stroke-linejoin="round" fill="none"/></svg>