<?xml version="1.0" encoding="UTF-8"?><svg xmlns="http://www.w3.org/2000/svg" viewBox="0 0 512 512" width="512" height="512"><polygon points="65.5,160 256,50 256,270 65.5,380" fill="#22C55E"/><line x1="65.5" y1="233.33333333333331" x2="256" y2="123.33333333333333" stroke="#1a1a1a" stroke-width="2.5"/><line x1="129" y1="123.33333333333334" x2="129" y2="343.3333333333333" stroke="#1a1a1a" stroke-width="2.5"/><line x1="65.5" y1="306.66666666666663" x2="256" y2="196.66666666666666" stroke="#1a1a1a" stroke-width="2.5"/><line x1="192.5" y1="86.66666666666667" x2="192.5" y2="306.6666666666667" stroke="#1a1a1a" stroke-width="2.5"/><polygon points="65.5,160 256,270 446.5,160 256,50" fill="#F0F0F0"/><line x1="129" y1="123.33333333333334" x2="319.5" y2="233.33333333333334" stroke="#1a1a1a" stroke-width="2.5"/><line x1="129" y1="196.66666666666666" x2="319.5" y2="86.66666666666666" stroke="#1a1a1a" stroke-width="2.5"/><line x1="192.5" y1="86.66666666666667" x2="383" y2="196.66666666666669" stroke="#1a1a1a" stroke-width="2.5"/><line x1="192.5" y1="233.33333333333331" x2="383" y2="123.33333333333333" stroke="#1a1a1a" stroke-width="2.5"/><polygon points="256,50 446.5,160 446.5,380 256,270" fill="#EF4444"/><line x1="256" y1="123.33333333333333" x2="446.5" y2="233.33333333333331" stroke="#1a1a1a" stroke-width="2.5"/><line x1="319.5" y1="86.66666666666666" x2="319.5" y2="306.6666666666667" stroke="#1a1a1a" stroke-width="2.5"/><line x1="256" y1="196.66666666666666" x2="446.5" y2="306.66666666666663" stroke="#1a1a1a" stroke-width="2.5"/><line x1="383" y1="123.33333333333333" x2="383" y2="343.3333333333333" stroke="#1a1a1a" stroke-width="2.5"/><polygon points="65.5,160 256,50 256,270 65.5,380" stroke="#1a1a1a" stroke-width="3.5" stroke-linejoin="round" fill="none"/><polygon points="65.5,160 256,270 446.5,160 256,50" stroke="#1a1a1a" stroke-width="3.5" stroke-linejoin="round" fill="none"/><polygon points="256,50 446.5,160 446.5,380 256,270" stroke="#1a1a1a" stroke-width="3.5" stroke-linejoin="round" fill="none"/></svg>