<?xml version="1.0" encoding="UTF-8"?><svg xmlns="http://www.w3.org/2000/svg" viewBox="0 0 512 512" width="512" height="512"><polygon points="48.2,140.0 256.0,20.0 256.0,260.0 48.2,380.0" fill="#111"/><polygon points="48.2,140.0 256.0,260.0 463.8,140.0 256.0,20.0" fill="#111"/><polygon points="256.0,20.0 463.8,140.0 463.8,380.0 256.0,260.0" fill="#111"/><polygon points="53.4,143.0 112.2,109.0 112.2,177.0 53.4,211.0" fill="#22C55E" stroke="#0a0a0a" stroke-width="1.5" stroke-linejoin="round"/><polygon points="122.6,103.0 181.5,69.0 181.5,137.0 122.6,171.0" fill="#22C55E" stroke="#0a0a0a" stroke-width="1.5" stroke-linejoin="round"/><polygon points="191.9,63.0 250.8,29.0 250.8,97.0 191.9,131.0" fill="#22C55E" stroke="#0a0a0a" stroke-width="1.5" stroke-linejoin="round"/><polygon points="53.4,223.0 112.2,189.0 112.2,257.0 53.4,291.0" fill="#22C55E" stroke="#0a0a0a" stroke-width="1.5" stroke-linejoin="round"/><polygon points="122.6,183.0 181.5,149.0 181.5,217.0 122.6,251.0" fill="#22C55E" stroke="#0a0a0a" stroke-width="1.5" stroke-linejoin="round"/><polygon points="191.9,143.0 250.8,109.0 250.8,177.0 191.9,211.0" fill="#22C55E" stroke="#0a0a0a" stroke-width="1.5" stroke-linejoin="round"/><polygon points="53.4,303.0 112.2,269.0 112.2,337.0 53.4,371.0" fill="#22C55E" stroke="#0a0a0a" stroke-width="1.5" stroke-linejoin="round"/><polygon points="122.6,263.0 181.5,229.0 181.5,297.0 122.6,331.0" fill="#22C55E" stroke="#0a0a0a" stroke-width="1.5" stroke-linejoin="round"/><polygon points="191.9,223.0 250.8,189.0 250.8,257.0 191.9,291.0" fill="#22C55E" stroke="#0a0a0a" stroke-width="1.5" stroke-linejoin="round"/><polygon points="58.5,140.0 117.4,174.0 176.3,140.0 117.4,106.0" fill="#F97316" stroke="#0a0a0a" stroke-width="1.5" stroke-linejoin="round"/><polygon points="127.8,180.0 186.7,214.0 245.6,180.0 186.7,146.0" fill="#F97316" stroke="#0a0a0a" stroke-width="1.5" stroke-linejoin="round"/><polygon points="197.1,220.0 256.0,254.0 314.9,220.0 256.0,186.0" fill="#F97316" stroke="#0a0a0a" stroke-width="1.5" stroke-linejoin="round"/><polygon points="127.8,100.0 186.7,134.0 245.6,100.0 186.7,66.0" fill="#F97316" stroke="#0a0a0a" stroke-width="1.5" stroke-linejoin="round"/><polygon points="197.1,140.0 256.0,174.0 314.9,140.0 256.0,106.0" fill="#F97316" stroke="#0a0a0a" stroke-width="1.5" stroke-linejoin="round"/><polygon points="266.4,180.0 325.3,214.0 384.2,180.0 325.3,146.0" fill="#F97316" stroke="#0a0a0a" stroke-width="1.5" stroke-linejoin="round"/><polygon points="197.1,60.0 256.0,94.0 314.9,60.0 256.0,26.0" fill="#F97316" stroke="#0a0a0a" stroke-width="1.5" stroke-linejoin="round"/><polygon points="266.4,100.0 325.3,134.0 384.2,100.0 325.3,66.0" fill="#F97316" stroke="#0a0a0a" stroke-width="1.5" stroke-linejoin="round"/><polygon points="335.7,140.0 394.6,174.0 453.5,140.0 394.6,106.0" fill="#F97316" stroke="#0a0a0a" stroke-width="1.5" stroke-linejoin="round"/><polygon points="261.2,29.0 320.1,63.0 320.1,131.0 261.2,97.0" fill="#F5F5F5" stroke="#0a0a0a" stroke-width="1.5" stroke-linejoin="round"/><polygon points="330.5,69.0 389.4,103.0 389.4,171.0 330.5,137.0" fill="#F5F5F5" stroke="#0a0a0a" stroke-width="1.5" stroke-linejoin="round"/><polygon points="399.8,109.0 458.6,143.0 458.6,211.0 399.8,177.0" fill="#F5F5F5" stroke="#0a0a0a" stroke-width="1.5" stroke-linejoin="round"/><polygon points="261.2,109.0 320.1,143.0 320.1,211.0 261.2,177.0" fill="#F5F5F5" stroke="#0a0a0a" stroke-width="1.5" stroke-linejoin="round"/><polygon points="330.5,149.0 389.4,183.0 389.4,251.0 330.5,217.0" fill="#F5F5F5" stroke="#0a0a0a" stroke-width="1.5" stroke-linejoin="round"/><polygon points="399.8,189.0 458.6,223.0 458.6,291.0 399.8,257.0" fill="#F5F5F5" stroke="#0a0a0a" stroke-width="1.5" stroke-linejoin="round"/><polygon points="261.2,189.0 320.1,223.0 320.1,291.0 261.2,257.0" fill="#F5F5F5" stroke="#0a0a0a" stroke-width="1.5" stroke-linejoin="round"/><polygon points="330.5,229.0 389.4,263.0 389.4,331.0 330.5,297.0" fill="#F5F5F5" stroke="#0a0a0a" stroke-width="1.5" stroke-linejoin="round"/><polygon points="399.8,269.0 458.6,303.0 458.6,371.0 399.8,337.0" fill="#F5F5F5" stroke="#0a0a0a" stroke-width="1.5" stroke-linejoin="round"/><polygon points="48.2,140.0 256.0,20.0 256.0,260.0 48.2,380.0" fill="none" stroke="#0a0a0a" stroke-width="4" stroke-linejoin="round"/><polygon points="48.2,140.0 256.0,260.0 463.8,140.0 256.0,20.0" fill="none" stroke="#0a0a0a" stroke-width="4" stroke-linejoin="round"/><polygon points="256.0,20.0 463.8,140.0 463.8,380.0 256.0,260.0" fill="none" stroke="#0a0a0a" stroke-width="4" stroke-linejoin="round"/></svg>