<?xml version="1.0" encoding="UTF-8"?><svg xmlns="http://www.w3.org/2000/svg" viewBox="0 0 512 512" width="512" height="512"><polygon points="56.8,141.0 256.0,26.0 256.0,256.0 56.8,371.0" fill="#22C55E"/><line x1="56.8" y1="217.7" x2="256.0" y2="102.7" stroke="#1a1a1a" stroke-width="3"/><line x1="123.2" y1="102.7" x2="123.2" y2="332.7" stroke="#1a1a1a" stroke-width="3"/><line x1="56.8" y1="294.3" x2="256.0" y2="179.3" stroke="#1a1a1a" stroke-width="3"/><line x1="189.6" y1="64.3" x2="189.6" y2="294.3" stroke="#1a1a1a" stroke-width="3"/><polygon points="56.8,141.0 256.0,256.0 455.2,141.0 256.0,26.0" fill="#E8E8E8"/><line x1="123.2" y1="102.7" x2="322.4" y2="217.7" stroke="#1a1a1a" stroke-width="3"/><line x1="123.2" y1="179.3" x2="322.4" y2="64.3" stroke="#1a1a1a" stroke-width="3"/><line x1="189.6" y1="64.3" x2="388.8" y2="179.3" stroke="#1a1a1a" stroke-width="3"/><line x1="189.6" y1="217.7" x2="388.8" y2="102.7" stroke="#1a1a1a" stroke-width="3"/><polygon points="256.0,26.0 455.2,141.0 455.2,371.0 256.0,256.0" fill="#EF4444"/><line x1="256.0" y1="102.7" x2="455.2" y2="217.7" stroke="#1a1a1a" stroke-width="3"/><line x1="322.4" y1="64.3" x2="322.4" y2="294.3" stroke="#1a1a1a" stroke-width="3"/><line x1="256.0" y1="179.3" x2="455.2" y2="294.3" stroke="#1a1a1a" stroke-width="3"/><line x1="388.8" y1="102.7" x2="388.8" y2="332.7" stroke="#1a1a1a" stroke-width="3"/><polygon points="56.8,141.0 256.0,26.0 256.0,256.0 56.8,371.0" stroke="#1a1a1a" stroke-width="4" stroke-linejoin="round" fill="none"/><polygon points="56.8,141.0 256.0,256.0 455.2,141.0 256.0,26.0" stroke="#1a1a1a" stroke-width="4" stroke-linejoin="round" fill="none"/><polygon points="256.0,26.0 455.2,141.0 455.2,371.0 256.0,256.0" stroke="#1a1a1a" stroke-width="4" stroke-linejoin="round" fill="none"/></svg>